<?xml version="1.0" encoding="UTF-8" standalone="no"?>
<svg
   xmlns:dc="http://purl.org/dc/elements/1.1/"
   xmlns:cc="http://creativecommons.org/ns#"
   xmlns:rdf="http://www.w3.org/1999/02/22-rdf-syntax-ns#"
   xmlns:svg="http://www.w3.org/2000/svg"
   xmlns="http://www.w3.org/2000/svg"
   id="svg2451"
   viewBox="0, 0, 128, 128"
   height="128"
   width="128"
   y="0px"
   x="0px"
   version="1.1">
  <metadata
     id="metadata2455">
    <rdf:RDF>
      <cc:Work
         rdf:about="">
        <dc:format>image/svg+xml</dc:format>
        <dc:type
           rdf:resource="http://purl.org/dc/dcmitype/StillImage" />
        <dc:title></dc:title>
      </cc:Work>
    </rdf:RDF>
  </metadata>
  <g
     transform="matrix(1.2705,0,0,1.2705,-28.882197,-27.900779)"
     id="Background">
    <rect
       style="fill:#000000;fill-opacity:0"
       id="rect2434"
       height="128"
       width="128"
       y="0"
       x="0" />
  </g>
  <g
     id="g2447">
    <g
       style="fill:#ebeded;fill-opacity:1"
       id="g3681"
       transform="matrix(0.2025,0,0,0.2025,11.313137,17.859557)" />
    <g
       style="fill:#ebeded;fill-opacity:1"
       id="g3683"
       transform="matrix(0.2025,0,0,0.2025,11.313137,17.859557)" />
    <g
       style="fill:#ebeded;fill-opacity:1"
       id="g3685"
       transform="matrix(0.2025,0,0,0.2025,11.313137,17.859557)" />
    <g
       style="fill:#ebeded;fill-opacity:1"
       id="g3687"
       transform="matrix(0.2025,0,0,0.2025,11.313137,17.859557)" />
    <g
       style="fill:#ebeded;fill-opacity:1"
       id="g3689"
       transform="matrix(0.2025,0,0,0.2025,11.313137,17.859557)" />
    <g
       style="fill:#ebeded;fill-opacity:1"
       id="g3691"
       transform="matrix(0.2025,0,0,0.2025,11.313137,17.859557)" />
    <g
       style="fill:#ebeded;fill-opacity:1"
       id="g3693"
       transform="matrix(0.2025,0,0,0.2025,11.313137,17.859557)" />
    <g
       style="fill:#ebeded;fill-opacity:1"
       id="g3695"
       transform="matrix(0.2025,0,0,0.2025,11.313137,17.859557)" />
    <g
       style="fill:#ebeded;fill-opacity:1"
       id="g3697"
       transform="matrix(0.2025,0,0,0.2025,11.313137,17.859557)" />
    <g
       style="fill:#ebeded;fill-opacity:1"
       id="g3699"
       transform="matrix(0.2025,0,0,0.2025,11.313137,17.859557)" />
    <g
       style="fill:#ebeded;fill-opacity:1"
       id="g3701"
       transform="matrix(0.2025,0,0,0.2025,11.313137,17.859557)" />
    <g
       style="fill:#ebeded;fill-opacity:1"
       id="g3703"
       transform="matrix(0.2025,0,0,0.2025,11.313137,17.859557)" />
    <g
       style="fill:#ebeded;fill-opacity:1"
       id="g3705"
       transform="matrix(0.2025,0,0,0.2025,11.313137,17.859557)" />
    <g
       style="fill:#ebeded;fill-opacity:1"
       id="g3707"
       transform="matrix(0.2025,0,0,0.2025,11.313137,17.859557)" />
    <g
       style="fill:#ebeded;fill-opacity:1"
       id="g3709"
       transform="matrix(0.2025,0,0,0.2025,11.313137,17.859557)" />
    <g
       style="fill:#737370;fill-opacity:1;stroke:none"
       id="g599"
       transform="matrix(0.51884044,0,0,0.51884044,-65.847195,-54.488427)">
      <polygon
         transform="matrix(0.1356032,0.2932032,-0.00416466,0.97115047,323.55068,-54.480993)"
         id="polygon597"
         points="184.642,143.629 340.526,71.579 340.526,274.219 184.642,357.35 "
         style="fill:#737370;fill-opacity:1;stroke:none" />
      <rect
         y="139.58749"
         x="133.37123"
         height="207.25262"
         width="207.25262"
         id="rect1581"
         style="fill:#737370;fill-opacity:1;stroke:none;stroke-width:2.33212352;stroke-opacity:1" />
      <polygon
         transform="matrix(-0.31823348,-0.13560319,-0.97038174,0.00416466,540.83715,157.00748)"
         id="polygon597-3"
         points="340.526,274.219 184.642,357.35 184.642,143.629 340.526,71.579 "
         style="fill:#737370;fill-opacity:1;stroke:none" />
    </g>
    <g
       id="g601"
       transform="matrix(0.3375,0,0,0.3375,136.96358,-2.8188527)" />
    <g
       id="g603"
       transform="matrix(0.3375,0,0,0.3375,136.96358,-2.8188527)" />
    <g
       id="g605"
       transform="matrix(0.3375,0,0,0.3375,136.96358,-2.8188527)" />
    <g
       id="g607"
       transform="matrix(0.3375,0,0,0.3375,136.96358,-2.8188527)" />
    <g
       id="g609"
       transform="matrix(0.3375,0,0,0.3375,136.96358,-2.8188527)" />
    <g
       id="g611"
       transform="matrix(0.3375,0,0,0.3375,136.96358,-2.8188527)" />
    <g
       id="g613"
       transform="matrix(0.3375,0,0,0.3375,136.96358,-2.8188527)" />
    <g
       id="g615"
       transform="matrix(0.3375,0,0,0.3375,136.96358,-2.8188527)" />
    <g
       id="g617"
       transform="matrix(0.3375,0,0,0.3375,136.96358,-2.8188527)" />
    <g
       id="g619"
       transform="matrix(0.3375,0,0,0.3375,136.96358,-2.8188527)" />
    <g
       id="g621"
       transform="matrix(0.3375,0,0,0.3375,136.96358,-2.8188527)" />
    <g
       id="g623"
       transform="matrix(0.3375,0,0,0.3375,136.96358,-2.8188527)" />
    <g
       id="g625"
       transform="matrix(0.3375,0,0,0.3375,136.96358,-2.8188527)" />
    <g
       id="g627"
       transform="matrix(0.3375,0,0,0.3375,136.96358,-2.8188527)" />
    <g
       id="g629"
       transform="matrix(0.3375,0,0,0.3375,136.96358,-2.8188527)" />
    <path
       style="fill:#82d1f5;fill-opacity:1;stroke-width:0.25550959"
       id="path554"
       d="m 103.39851,66.493256 c -0.0413,-0.949716 -0.56983,-1.738155 -1.35364,-2.018519 L 82.730128,57.568477 82.281577,55.107268 C 82.141194,54.33689 81.670376,53.725774 81.021191,53.470707 L 66.108242,47.614781 c 0.347807,-3.388536 0.26487,-6.956412 -0.263782,-10.667245 -1.176947,-8.261045 -4.115369,-14.289283 -4.239812,-14.541944 -0.29688,-0.60187 -0.822634,-1.003503 -1.439591,-1.099222 -0.616463,-0.09467 -1.26273,0.123961 -1.768417,0.601989 -1.888084,1.783987 -3.43582,3.811628 -4.705239,5.931024 -1.194157,-1.974907 -2.619483,-3.838149 -4.323682,-5.497814 -0.458723,-0.446953 -1.085083,-0.625898 -1.713116,-0.49065 -0.628504,0.135382 -1.196727,0.571803 -1.555293,1.194461 -0.197469,0.343389 -4.871205,8.534504 -7.525275,19.542637 -2.32041,9.623936 -2.341102,18.384361 -0.123321,25.908184 -8.597492,10.522496 -14.819849,29.163211 -17.832197,40.729099 -2.4291,6.1159 -2.361692,13.63769 -1.570498,13.95201 l 43.003749,-0.0748 c 0.283515,0.11253 0.583129,0.15038 0.880356,0.11991 0.536623,-0.0568 1.064637,-0.33733 1.47016,-0.80974 0.630582,-0.73392 0.844585,-1.7883 0.54379,-2.67859 -1.609352,-4.75982 -5.008791,-18.45957 -1.4578,-24.611048 1.056691,-1.83065 2.727584,-2.84162 5.108279,-3.09072 5.934428,-0.620929 6.607349,5.30725 6.663387,5.96963 0.09176,1.2672 1.038484,2.155628 2.171151,2.037058 3.059569,-0.320548 5.785405,-1.015168 8.176911,-2.069278 l 0.95853,2.408468 c 0.231823,0.58243 0.670469,1.01398 1.215553,1.1957 0.253046,0.0845 0.518683,0.1118 0.784257,0.0842 0.307035,-0.0286 0.612583,-0.13824 0.896447,-0.3136 7.362269,-4.578358 9.626425,-11.351446 10.229745,-16.227142 0.500126,-4.040646 -0.0507,-7.425373 -0.33245,-8.779674 3.099166,-2.484713 4.169846,-6.802945 4.038286,-9.843347 z m -29.728883,-1.0247 c -0.500881,0.669876 -1.185775,1.100109 -1.92865,1.210988 -0.03703,0.0046 -0.07413,0.01101 -0.111017,0.01417 -1.500372,0.156989 -2.730388,-1.041862 -2.800457,-2.729355 -0.07063,-1.727638 1.118923,-3.317929 2.651798,-3.547312 1.53794,-0.226642 2.839468,0.986438 2.911225,2.715591 0.03477,0.836304 -0.222019,1.665898 -0.722903,2.336033 z" />
  </g>
  <defs
     id="defs2449" />
</svg>
